<?xml version="1.0" standalone="no"?>
<!DOCTYPE svg PUBLIC "-//W3C//DTD SVG 20010904//EN"
 "http://www.w3.org/TR/2001/REC-SVG-20010904/DTD/svg10.dtd">
<svg version="1.0" xmlns="http://www.w3.org/2000/svg"
 width="100.000000pt" height="100.000000pt" viewBox="0 0 100.000000 100.000000"
 preserveAspectRatio="xMidYMid meet">
<metadata>
Created by potrace 1.14, written by Peter Selinger 2001-2017
</metadata>
<g transform="translate(0.000000,100.000000) scale(0.100000,-0.100000)"
fill="#000000" stroke="none">
<path d="M481 894 c0 -7 -7 -11 -13 -10 -7 0 -13 -2 -13 -6 0 -4 -10 -15 -22
-23 -14 -10 -20 -22 -17 -33 5 -14 4 -15 -5 -2 -7 11 -6 19 6 32 9 10 11 18 6
18 -6 0 -14 -7 -17 -16 -3 -9 -11 -12 -18 -8 -10 6 -10 5 -1 -7 10 -12 9 -20
-4 -39 -11 -15 -12 -20 -3 -15 10 6 12 4 7 -8 -6 -16 6 -30 31 -33 6 -1 10 2
6 7 -3 5 -9 7 -14 4 -5 -3 -11 -1 -14 4 -3 5 3 11 14 14 11 3 18 2 17 -2 -4
-12 30 -51 38 -43 5 4 5 1 1 -5 -5 -8 -1 -13 9 -13 11 0 15 5 11 16 -3 8 -2
12 4 9 6 -3 10 -1 10 6 0 7 7 4 16 -7 8 -10 13 -13 9 -6 -6 11 7 17 28 13 5
-1 6 3 2 9 -3 5 0 10 7 10 10 0 10 2 -1 9 -11 7 -11 9 0 14 12 4 11 7 -1 16
-9 7 -10 11 -3 11 6 0 11 9 10 20 -1 19 -10 24 -30 21 -5 -1 -6 3 -2 8 3 6 13
7 23 4 18 -7 17 -5 -12 17 -13 10 -17 10 -12 3 4 -8 1 -13 -8 -13 -9 0 -16 6
-16 13 0 8 -3 8 -9 -2 -7 -11 -10 -10 -14 5 -2 10 -5 14 -6 8z"/>
<path d="M433 723 c4 -6 -1 -17 -10 -23 -17 -11 -17 -11 0 -6 9 3 17 1 17 -4
0 -6 -8 -10 -17 -11 -11 0 -13 -3 -5 -6 6 -2 12 -9 12 -14 0 -6 -4 -7 -10 -4
-5 3 -10 -3 -10 -15 0 -12 3 -19 8 -17 4 3 7 -5 7 -18 0 -18 -3 -21 -13 -13
-9 8 -11 7 -6 -6 3 -9 9 -16 13 -16 4 0 8 -7 8 -15 0 -10 -4 -12 -12 -5 -7 6
-11 3 -11 -9 0 -10 5 -18 11 -17 5 1 11 -3 12 -9 1 -5 -4 -9 -12 -7 -7 1 -17
-3 -21 -9 -4 -7 -3 -9 4 -5 12 7 21 -4 27 -33 2 -13 -1 -18 -10 -15 -7 3 -16
0 -21 -7 -4 -8 -3 -10 4 -5 18 11 14 -5 -5 -28 -13 -15 -10 -14 10 3 27 25 27
25 24 3 -2 -12 -7 -25 -12 -29 -4 -5 -5 -2 -1 5 10 17 1 15 -14 -4 -8 -8 -9
-14 -4 -13 20 4 26 -2 15 -15 -8 -9 -8 -16 -2 -20 6 -4 7 -14 4 -23 -5 -12 -3
-14 8 -8 12 7 12 6 1 -7 -11 -14 -10 -18 5 -28 16 -10 15 -10 -5 -5 l-24 7 18
-29 c18 -27 18 -28 0 -13 -19 15 -19 14 -2 -19 10 -18 13 -30 7 -27 -6 4 -11
2 -11 -3 0 -6 4 -11 8 -11 4 0 15 -13 25 -29 12 -21 22 -28 37 -24 11 3 18 9
15 13 -6 10 15 8 32 -3 8 -5 10 1 7 20 -2 16 -1 23 3 17 9 -13 45 -15 37 -2
-3 5 -9 6 -14 3 -4 -3 -10 2 -14 10 -3 10 1 15 12 15 16 1 16 1 0 11 -9 5 -15
16 -12 24 4 8 9 13 13 11 4 -3 8 4 8 15 1 10 -3 19 -8 19 -6 0 -7 -4 -4 -10 3
-6 -1 -7 -10 -4 -14 6 -14 8 2 19 23 17 27 78 4 70 -13 -5 -13 -4 -4 6 8 8 9
18 3 30 -7 12 -6 22 5 33 8 8 10 16 5 18 -14 4 -23 58 -10 58 6 0 8 -4 5 -10
-3 -5 -2 -10 4 -10 5 0 9 9 8 20 -1 15 -6 19 -22 14 -11 -3 -15 -2 -10 3 12 9
13 23 3 39 -4 6 -1 11 7 11 8 0 11 -5 8 -11 -3 -7 -1 -6 7 1 12 11 5 37 -9 29
-4 -3 -7 8 -7 24 0 16 3 27 7 24 4 -2 10 0 14 6 3 5 -2 10 -12 11 -16 0 -16 1
1 8 19 7 19 8 0 16 -10 4 -23 7 -27 6 -5 -1 -6 3 -2 9 3 5 1 10 -4 10 -6 0
-11 10 -11 23 0 17 -2 19 -9 7 -6 -8 -7 -18 -5 -22 8 -12 -29 3 -50 21 -11 9
-16 11 -13 4z m124 -415 c2 -17 0 -19 -7 -8 -5 8 -6 18 -4 22 8 12 10 10 11
-14z"/>
<path d="M545 680 c3 -5 8 -10 11 -10 2 0 4 5 4 10 0 6 -5 10 -11 10 -5 0 -7
-4 -4 -10z"/>
<path d="M396 472 c-3 -5 1 -9 9 -9 8 0 12 4 9 9 -3 4 -7 8 -9 8 -2 0 -6 -4
-9 -8z"/>
<path d="M555 400 c-3 -5 -1 -10 4 -10 6 0 11 5 11 10 0 6 -2 10 -4 10 -3 0
-8 -4 -11 -10z"/>
<path d="M416 145 c4 -8 11 -15 16 -15 6 0 5 6 -2 15 -7 8 -14 15 -16 15 -2 0
-1 -7 2 -15z"/>
</g>
</svg>
